<svg width="795" height="265" viewBox="0 0 795 265" fill="none" xmlns="http://www.w3.org/2000/svg" xmlns:xlink="http://www.w3.org/1999/xlink">
<rect width="795" height="265" fill="#00FF48"/>
<path d="M130.644 91.1512L148.093 108.6C160.435 120.942 181.288 112.217 181.288 94.7686L181.288 72L79.9999 72L79.9999 141.795L130.644 91.1512Z" fill="white"/>
<path d="M79.0001 188.12L79.0001 164.351C79.0001 146.021 100.924 136.835 113.902 149.813L130.645 166.555L180.581 116.618L182.288 114.91L182.288 188.12L79.0001 188.12Z" stroke="black" stroke-width="2"/>
<path d="M234.658 154.853C231.294 154.853 228.262 154.332 225.561 153.289C222.86 152.2 220.562 150.612 218.667 148.528C216.772 146.396 215.303 143.766 214.261 140.639C213.219 137.465 212.698 133.769 212.698 129.552C212.698 125.383 213.219 121.688 214.261 118.466C215.303 115.197 216.772 112.472 218.667 110.293C220.562 108.066 222.86 106.384 225.561 105.247C228.262 104.11 231.294 103.541 234.658 103.541C239.253 103.541 243.044 104.489 246.029 106.384C249.014 108.232 251.406 111.169 253.207 115.197L243.897 120.029C243.233 117.945 242.191 116.286 240.77 115.055C239.396 113.775 237.358 113.136 234.658 113.136C231.483 113.136 228.925 114.178 226.982 116.263C225.087 118.3 224.14 121.285 224.14 125.217V133.177C224.14 137.109 225.087 140.118 226.982 142.203C228.925 144.24 231.483 145.259 234.658 145.259C237.311 145.259 239.419 144.548 240.983 143.127C242.594 141.658 243.778 139.905 244.536 137.867L253.349 142.984C251.501 146.775 249.061 149.712 246.029 151.797C243.044 153.834 239.253 154.853 234.658 154.853ZM290.912 154L287.359 142.203H270.8L267.246 154H256.302L272.648 104.394H286.009L302.141 154H290.912ZM279.186 114.202H278.831L273.358 133.035H284.729L279.186 114.202ZM319.807 154H309.004V104.394H332.528C334.802 104.394 336.863 104.773 338.711 105.531C340.559 106.289 342.122 107.379 343.401 108.8C344.728 110.174 345.747 111.833 346.457 113.775C347.168 115.718 347.523 117.874 347.523 120.243C347.523 123.606 346.765 126.544 345.249 129.055C343.78 131.566 341.53 133.39 338.498 134.527L348.234 154H336.223L327.553 135.806H319.807V154ZM331.178 126.71C332.788 126.71 334.044 126.307 334.944 125.502C335.892 124.649 336.365 123.417 336.365 121.806V118.679C336.365 117.068 335.892 115.86 334.944 115.055C334.044 114.202 332.788 113.775 331.178 113.775H319.807V126.71H331.178ZM376.246 122.303H370.276V117.329H376.246V109.938C376.246 107.379 376.909 105.318 378.236 103.755C379.562 102.191 381.576 101.409 384.277 101.409H389.82V106.384H381.931V117.329H389.82V122.303H381.931V154H376.246V122.303ZM397.298 154V117.329H402.983V124.08H403.339C404.002 122.327 405.186 120.764 406.892 119.39C408.598 118.016 410.943 117.329 413.928 117.329H416.131V123.014H412.791C409.711 123.014 407.295 123.606 405.542 124.791C403.836 125.928 402.983 127.373 402.983 129.126V154H397.298ZM449.766 154C447.634 154 446.094 153.431 445.147 152.294C444.247 151.157 443.678 149.736 443.441 148.03H443.086C442.28 150.304 440.954 152.01 439.106 153.147C437.258 154.284 435.055 154.853 432.497 154.853C428.612 154.853 425.579 153.858 423.4 151.868C421.268 149.878 420.202 147.177 420.202 143.766C420.202 140.307 421.457 137.654 423.968 135.806C426.527 133.959 430.483 133.035 435.837 133.035H443.086V129.41C443.086 126.804 442.375 124.815 440.954 123.441C439.532 122.067 437.353 121.38 434.415 121.38C432.189 121.38 430.317 121.877 428.801 122.872C427.332 123.867 426.1 125.194 425.105 126.852L421.694 123.654C422.689 121.664 424.276 119.982 426.456 118.608C428.635 117.187 431.383 116.476 434.7 116.476C439.153 116.476 442.612 117.566 445.076 119.745C447.539 121.924 448.771 124.957 448.771 128.842V149.025H452.964V154H449.766ZM433.421 150.02C434.842 150.02 436.145 149.854 437.329 149.523C438.514 149.191 439.532 148.717 440.385 148.101C441.238 147.485 441.901 146.775 442.375 145.969C442.849 145.164 443.086 144.287 443.086 143.34V137.299H435.553C432.283 137.299 429.891 137.773 428.375 138.72C426.906 139.668 426.172 141.042 426.172 142.842V144.335C426.172 146.135 426.811 147.533 428.09 148.528C429.417 149.523 431.194 150.02 433.421 150.02ZM461.079 154V117.329H466.764V123.298H467.049C467.475 122.351 467.949 121.474 468.47 120.669C469.039 119.816 469.702 119.082 470.46 118.466C471.265 117.85 472.189 117.376 473.232 117.044C474.274 116.665 475.506 116.476 476.927 116.476C479.343 116.476 481.57 117.068 483.608 118.253C485.645 119.39 487.161 121.285 488.156 123.938H488.298C488.961 121.948 490.193 120.219 491.994 118.75C493.841 117.234 496.329 116.476 499.456 116.476C503.199 116.476 506.113 117.708 508.197 120.171C510.329 122.588 511.395 126.023 511.395 130.476V154H505.71V131.471C505.71 128.202 505.07 125.738 503.791 124.08C502.512 122.422 500.474 121.593 497.679 121.593C496.542 121.593 495.452 121.735 494.41 122.019C493.415 122.303 492.515 122.73 491.709 123.298C490.904 123.867 490.264 124.601 489.791 125.502C489.317 126.354 489.08 127.373 489.08 128.558V154H483.394V131.471C483.394 128.202 482.755 125.738 481.476 124.08C480.196 122.422 478.206 121.593 475.506 121.593C474.369 121.593 473.279 121.735 472.237 122.019C471.194 122.303 470.27 122.73 469.465 123.298C468.66 123.867 467.996 124.601 467.475 125.502C467.001 126.354 466.764 127.373 466.764 128.558V154H461.079ZM536.912 154.853C534.401 154.853 532.127 154.403 530.09 153.503C528.1 152.602 526.37 151.323 524.902 149.665C523.48 147.959 522.367 145.946 521.561 143.624C520.803 141.255 520.424 138.602 520.424 135.664C520.424 132.774 520.803 130.145 521.561 127.776C522.367 125.407 523.48 123.393 524.902 121.735C526.37 120.029 528.1 118.726 530.09 117.826C532.127 116.926 534.401 116.476 536.912 116.476C539.376 116.476 541.579 116.926 543.522 117.826C545.464 118.726 547.122 119.982 548.496 121.593C549.87 123.156 550.913 125.028 551.623 127.207C552.381 129.387 552.76 131.779 552.76 134.385V137.086H526.394V138.791C526.394 140.355 526.631 141.824 527.105 143.198C527.626 144.524 528.337 145.685 529.237 146.68C530.184 147.675 531.321 148.457 532.648 149.025C534.022 149.594 535.562 149.878 537.268 149.878C539.589 149.878 541.603 149.333 543.308 148.243C545.061 147.154 546.412 145.59 547.359 143.553L551.41 146.467C550.226 148.978 548.378 151.015 545.867 152.579C543.356 154.095 540.371 154.853 536.912 154.853ZM536.912 121.237C535.349 121.237 533.927 121.522 532.648 122.09C531.369 122.611 530.255 123.37 529.308 124.364C528.408 125.359 527.697 126.544 527.176 127.918C526.655 129.245 526.394 130.713 526.394 132.324V132.822H546.649V132.04C546.649 128.771 545.748 126.165 543.948 124.222C542.195 122.232 539.85 121.237 536.912 121.237ZM557.945 117.329H563.488L567.397 133.177L571.305 149.238H571.448L575.925 133.177L580.544 117.329H585.59L590.352 133.177L594.9 149.238H595.042L598.809 133.177L602.789 117.329H608.119L598.382 154H591.347L586.23 136.375L583.032 125.217H582.89L579.763 136.375L574.646 154H567.752L557.945 117.329ZM629.844 154.853C627.38 154.853 625.13 154.403 623.093 153.503C621.055 152.602 619.302 151.323 617.834 149.665C616.412 147.959 615.299 145.946 614.493 143.624C613.688 141.255 613.285 138.602 613.285 135.664C613.285 132.774 613.688 130.145 614.493 127.776C615.299 125.407 616.412 123.393 617.834 121.735C619.302 120.029 621.055 118.726 623.093 117.826C625.13 116.926 627.38 116.476 629.844 116.476C632.308 116.476 634.535 116.926 636.525 117.826C638.562 118.726 640.315 120.029 641.784 121.735C643.252 123.393 644.389 125.407 645.195 127.776C646 130.145 646.403 132.774 646.403 135.664C646.403 138.602 646 141.255 645.195 143.624C644.389 145.946 643.252 147.959 641.784 149.665C640.315 151.323 638.562 152.602 636.525 153.503C634.535 154.403 632.308 154.853 629.844 154.853ZM629.844 149.807C632.924 149.807 635.435 148.859 637.377 146.964C639.32 145.069 640.291 142.179 640.291 138.294V133.035C640.291 129.15 639.32 126.26 637.377 124.364C635.435 122.469 632.924 121.522 629.844 121.522C626.764 121.522 624.253 122.469 622.311 124.364C620.368 126.26 619.397 129.15 619.397 133.035V138.294C619.397 142.179 620.368 145.069 622.311 146.964C624.253 148.859 626.764 149.807 629.844 149.807ZM655.754 154V117.329H661.439V124.08H661.794C662.458 122.327 663.642 120.764 665.348 119.39C667.053 118.016 669.399 117.329 672.384 117.329H674.587V123.014H671.246C668.167 123.014 665.751 123.606 663.998 124.791C662.292 125.928 661.439 127.373 661.439 129.126V154H655.754ZM681.849 101.409H687.534V134.74H687.819L693.433 128.486L703.809 117.329H710.703L697.129 131.827L712.053 154H705.159L693.007 135.309L687.534 140.923V154H681.849V101.409Z" fill="white"/>
</svg>
